<svg id="visual" viewBox="0 0 900 600" width="900" height="600" xmlns="http://www.w3.org/2000/svg" xmlns:xlink="http://www.w3.org/1999/xlink" version="1.1"><path d="M0 43L82 79L164 55L245 67L327 61L409 31L491 67L573 79L655 67L736 73L818 91L900 37L900 0L818 0L736 0L655 0L573 0L491 0L409 0L327 0L245 0L164 0L82 0L0 0Z" fill="#00c6fb"></path><path d="M0 199L82 271L164 145L245 187L327 241L409 265L491 235L573 235L655 253L736 151L818 199L900 199L900 35L818 89L736 71L655 65L573 77L491 65L409 29L327 59L245 65L164 53L82 77L0 41Z" fill="#00bcfa"></path><path d="M0 307L82 325L164 271L245 283L327 343L409 421L491 361L573 367L655 379L736 289L818 283L900 301L900 197L818 197L736 149L655 251L573 233L491 233L409 263L327 239L245 185L164 143L82 269L0 197Z" fill="#00b1f8"></path><path d="M0 445L82 457L164 505L245 475L327 433L409 499L491 433L573 511L655 451L736 481L818 505L900 433L900 299L818 281L736 287L655 377L573 365L491 359L409 419L327 341L245 281L164 269L82 323L0 305Z" fill="#00a6f4"></path><path d="M0 499L82 493L164 559L245 523L327 487L409 547L491 505L573 553L655 505L736 559L818 565L900 517L900 431L818 503L736 479L655 449L573 509L491 431L409 497L327 431L245 473L164 503L82 455L0 443Z" fill="#0b9bf0"></path><path d="M0 601L82 601L164 601L245 601L327 601L409 601L491 601L573 601L655 601L736 601L818 601L900 601L900 515L818 563L736 557L655 503L573 551L491 503L409 545L327 485L245 521L164 557L82 491L0 497Z" fill="#218feb"></path></svg>