<svg viewBox="0 0 24 24" fill="none" xmlns="http://www.w3.org/2000/svg" stroke="#00c6fb"><g id="SVGRepo_bgCarrier" stroke-width="0"></g><g id="SVGRepo_tracerCarrier" stroke-linecap="round" stroke-linejoin="round"></g><g id="SVGRepo_iconCarrier"> <g id="style=fill"> <g id="timer"> <path id="Subtract" fill-rule="evenodd" clip-rule="evenodd" d="M12 3.5C6.61779 3.5 2.25 7.86779 2.25 13.25C2.25 18.6322 6.61779 23 12 23C17.3822 23 21.75 18.6322 21.75 13.25C21.75 7.86779 17.3822 3.5 12 3.5ZM12.75 8.25C12.75 7.83579 12.4142 7.5 12 7.5C11.5858 7.5 11.25 7.83579 11.25 8.25V13.25C11.25 13.6642 11.5858 14 12 14C12.4142 14 12.75 13.6642 12.75 13.25V8.25Z" fill="#00c6fb"></path> <path id="line (Stroke)" fill-rule="evenodd" clip-rule="evenodd" d="M8.25 1.75C8.25 2.16421 8.58579 2.5 9 2.5L15 2.5C15.4142 2.5 15.75 2.16421 15.75 1.75C15.75 1.33579 15.4142 0.999999 15 0.999999L9 1C8.58579 1 8.25 1.33579 8.25 1.75Z" fill="#00c6fb"></path> </g> </g> </g></svg>