<?xml version="1.0" encoding="UTF-8"?>
<!DOCTYPE svg PUBLIC "-//W3C//DTD SVG 1.1//EN" "http://www.w3.org/Graphics/SVG/1.1/DTD/svg11.dtd">
<svg xmlns="http://www.w3.org/2000/svg" version="1.1" width="500px" height="500px" style="shape-rendering:geometricPrecision; text-rendering:geometricPrecision; image-rendering:optimizeQuality; fill-rule:evenodd; clip-rule:evenodd" xmlns:xlink="http://www.w3.org/1999/xlink">
<g><path style="opacity:0.82" fill="#b6d3e4" d="M 193.5,22.5 C 194.586,22.62 195.253,23.2867 195.5,24.5C 194.696,26.9573 193.696,26.9573 192.5,24.5C 192.863,23.8165 193.196,23.1499 193.5,22.5 Z"/></g>
<g><path style="opacity:1" fill="#a5bdc2" d="M 38.5,30.5 C 44.7552,29.2607 48.4219,31.7607 49.5,38C 48.9469,42.7189 46.2803,45.2189 41.5,45.5C 35.3574,44.1895 33.1907,40.5228 35,34.5C 35.6897,32.6498 36.8564,31.3164 38.5,30.5 Z"/></g>
<g><path style="opacity:0.988" fill="#ebf6f1" d="M 204.5,34.5 C 209.658,33.3312 212.658,35.3312 213.5,40.5C 211.834,46.6927 208.334,48.026 203,44.5C 200.925,40.7942 201.425,37.4609 204.5,34.5 Z"/></g>
<g><path style="opacity:0.988" fill="#ecf9f7" d="M 57.5,55.5 C 62.7473,55.6398 63.7473,57.8064 60.5,62C 55.3623,61.8891 54.3623,59.7224 57.5,55.5 Z"/></g>
<g><path style="opacity:1" fill="#7ac1c1" d="M 371.5,82.5 C 368.64,83.7809 366.307,85.7809 364.5,88.5C 361.191,85.0063 357.191,83.5063 352.5,84C 351.397,87.0393 349.897,89.8726 348,92.5C 341.471,84.9204 337.637,85.9204 336.5,95.5C 332.833,94.8333 329.167,94.1667 325.5,93.5C 325.543,96.5865 325.71,99.5865 326,102.5C 325.283,101.956 324.783,101.289 324.5,100.5C 317.202,95.5383 312.202,88.8716 309.5,80.5C 309.344,77.108 310.844,75.108 314,74.5C 317.574,75.8929 321.074,77.0596 324.5,78C 322.204,72.571 320.037,67.071 318,61.5C 315.483,53.3272 318.317,50.1605 326.5,52C 331.153,57.4675 334.653,63.6342 337,70.5C 336.934,64.1701 336.934,57.8368 337,51.5C 338.651,44.0486 342.317,42.7152 348,47.5C 350.824,54.8859 352.49,62.5525 353,70.5C 353.601,63.5516 355.268,56.8849 358,50.5C 360.048,48.213 362.215,48.0464 364.5,50C 366.837,53.8394 368.337,58.006 369,62.5C 369.73,69.3289 370.563,75.9956 371.5,82.5 Z"/></g>
<g><path style="opacity:1" fill="#ebf6f1" d="M 426.5,57.5 C 434.709,56.3522 437.042,59.3522 433.5,66.5C 425.533,67.8672 423.2,64.8672 426.5,57.5 Z"/></g>
<g><path style="opacity:1" fill="#e1f6f9" d="M 163.5,70.5 C 166.166,70.0658 167.333,71.0658 167,73.5C 163.403,75.0661 162.237,74.0661 163.5,70.5 Z"/></g>
<g><path style="opacity:1" fill="#a3bbc1" d="M 119.5,68.5 C 128.171,68.1785 130.504,71.8452 126.5,79.5C 121.252,81.5429 117.919,79.8762 116.5,74.5C 116.984,72.1992 117.984,70.1992 119.5,68.5 Z"/></g>
<g><path style="opacity:0.831" fill="#b4d3e1" d="M 105.5,85.5 C 106.5,85.5 107.5,85.5 108.5,85.5C 108.426,89.5412 107.093,90.2079 104.5,87.5C 104.863,86.8165 105.196,86.1499 105.5,85.5 Z"/></g>
<g><path style="opacity:1" fill="#ecf8f5" d="M 446.5,92.5 C 451.942,92.8857 453.275,95.3857 450.5,100C 447.402,101.067 445.402,100.067 444.5,97C 444.519,95.167 445.185,93.667 446.5,92.5 Z"/></g>
<g><path style="opacity:0.837" fill="#a2bcc3" d="M 413.5,106.5 C 420.341,107.016 422.007,110.182 418.5,116C 412.507,117.668 410.007,115.502 411,109.5C 411.698,108.309 412.531,107.309 413.5,106.5 Z"/></g>
<g><path style="opacity:1" fill="#edf5ec" d="M 146.5,127.5 C 151.406,126.306 154.406,128.139 155.5,133C 152.891,139.242 149.057,140.075 144,135.5C 143.018,132.225 143.851,129.559 146.5,127.5 Z"/></g>
<g><path style="opacity:0.804" fill="#bbd9e9" d="M 72.5,145.5 C 75.1662,145.066 76.3329,146.066 76,148.5C 73.3422,149.694 72.1756,148.694 72.5,145.5 Z"/></g>
<g><path style="opacity:1" fill="#e9f6f4" d="M 96.5,158.5 C 102.488,158.664 103.821,161.164 100.5,166C 98.8876,166.72 97.3876,166.554 96,165.5C 95.2967,163.071 95.4634,160.738 96.5,158.5 Z"/></g>
<g><path style="opacity:1" fill="#a3bbbe" d="M 148.5,184.5 C 154.82,184.32 157.32,187.32 156,193.5C 152.582,197.367 149.249,197.367 146,193.5C 144.93,189.858 145.764,186.858 148.5,184.5 Z"/></g>
<g><path style="opacity:1" fill="#e9f7f4" d="M 453.5,195.5 C 458.651,195.654 459.984,197.82 457.5,202C 452.177,202.18 450.843,200.014 453.5,195.5 Z"/></g>
<g><path style="opacity:1" fill="#edf3ea" d="M 371.5,82.5 C 374.764,83.9274 377.264,86.2608 379,89.5C 390.861,110.001 395.194,132.001 392,155.5C 393.586,153.33 394.92,150.996 396,148.5C 397.586,155.057 397.92,161.724 397,168.5C 393.596,184.046 388.596,199.046 382,213.5C 377.397,218.104 372.23,221.938 366.5,225C 370.245,224.965 370.912,225.965 368.5,228C 358.795,233.173 348.462,236.007 337.5,236.5C 337.631,235.624 337.298,234.957 336.5,234.5C 332.304,233.215 328.304,231.548 324.5,229.5C 326.837,228.483 328.504,226.816 329.5,224.5C 325.39,224.041 321.723,222.541 318.5,220C 322.858,217.487 326.858,214.487 330.5,211C 326.908,211.502 323.241,211.502 319.5,211C 314.455,210.724 313.788,209.391 317.5,207C 313.126,206.461 308.792,206.128 304.5,206C 307.361,208.894 309.861,212.061 312,215.5C 315.986,223.162 320.153,230.495 324.5,237.5C 328.262,247.212 331.095,257.212 333,267.5C 333.667,271.5 333.667,275.5 333,279.5C 331.414,277.33 330.08,274.996 329,272.5C 331.221,283.854 333.888,295.187 337,306.5C 337.303,310.529 337.803,314.529 338.5,318.5C 338.167,319.167 337.833,319.833 337.5,320.5C 336,318.167 334.5,315.833 333,313.5C 333.53,326.227 332.364,339.061 329.5,352C 332.839,359.187 334.672,366.687 335,374.5C 334,373.167 333,371.833 332,370.5C 331.833,371 331.667,371.5 331.5,372C 333.892,378.673 335.559,385.506 336.5,392.5C 335.915,397.466 334.915,402.466 333.5,407.5C 331.733,404.963 330.233,402.297 329,399.5C 327.89,404.164 326.39,408.664 324.5,413C 321.503,413.755 319.003,412.922 317,410.5C 315.383,411.851 314.216,413.518 313.5,415.5C 312.554,415.987 311.554,416.32 310.5,416.5C 308.551,415.293 307.051,413.627 306,411.5C 304.685,414.492 302.685,416.825 300,418.5C 296.827,416.508 294.327,413.842 292.5,410.5C 290.393,412.53 288.393,414.697 286.5,417C 285.5,417.667 284.5,417.667 283.5,417C 278.634,411.068 275.801,404.235 275,396.5C 273.808,400.623 272.641,404.623 271.5,408.5C 267.006,395.586 265.339,382.253 266.5,368.5C 261.547,367.671 256.547,367.337 251.5,367.5C 250.381,380.642 247.381,393.309 242.5,405.5C 241.542,405.047 240.708,404.381 240,403.5C 239.562,400.624 238.562,397.957 237,395.5C 237.593,403.363 235.759,410.53 231.5,417C 227.784,417.157 224.784,415.657 222.5,412.5C 219.985,415.558 217.485,418.558 215,421.5C 212.622,419.761 210.455,417.761 208.5,415.5C 205.51,423.003 202.01,423.003 198,415.5C 196.281,417.557 194.281,419.224 192,420.5C 188.644,416.439 185.81,412.106 183.5,407.5C 182.624,407.631 181.957,407.298 181.5,406.5C 180.043,402.223 178.376,398.057 176.5,394C 176.509,392.596 177.009,391.43 178,390.5C 179.92,393.339 181.587,396.339 183,399.5C 183.75,398.874 184.584,398.374 185.5,398C 184.133,395.328 183.133,392.495 182.5,389.5C 181.575,388.359 180.741,388.359 180,389.5C 179.175,385.789 179.341,382.122 180.5,378.5C 182.027,380.193 183.36,382.027 184.5,384C 184.043,384.414 183.709,384.914 183.5,385.5C 184.274,386.711 185.107,386.711 186,385.5C 186.667,386.167 187.333,386.833 188,387.5C 188.333,390.167 188.667,392.833 189,395.5C 189.383,396.056 189.883,396.389 190.5,396.5C 190.5,397.5 190.5,398.5 190.5,399.5C 191.5,399.5 192.5,399.5 193.5,399.5C 193.833,394.167 194.167,388.833 194.5,383.5C 195.5,383.5 196.5,383.5 197.5,383.5C 197.334,388.844 197.501,394.177 198,399.5C 199.442,394.691 199.942,389.691 199.5,384.5C 200.5,384.5 201.5,384.5 202.5,384.5C 203.275,389.484 203.942,394.484 204.5,399.5C 205.5,399.5 206.5,399.5 207.5,399.5C 205.464,389.208 204.131,378.874 203.5,368.5C 202.432,367.566 201.099,367.232 199.5,367.5C 198.539,372.136 197.539,376.136 196.5,379.5C 195.178,379.67 194.011,379.337 193,378.5C 192.638,373.319 192.138,368.152 191.5,363C 191.833,361.833 192.167,360.667 192.5,359.5C 194.889,358.82 197.222,357.986 199.5,357C 199.5,355.667 199.5,354.333 199.5,353C 197.737,348.547 196.071,344.047 194.5,339.5C 195.5,339.5 196.5,339.5 197.5,339.5C 197.34,341.199 197.506,342.866 198,344.5C 200.002,346.503 201.502,348.836 202.5,351.5C 202.833,351 203.167,350.5 203.5,350C 202.251,345.519 200.584,341.185 198.5,337C 198.894,334.72 199.894,334.22 201.5,335.5C 201.215,337.288 201.548,338.955 202.5,340.5C 205.92,341.753 207.253,340.42 206.5,336.5C 205.356,332.945 204.023,329.445 202.5,326C 203.769,323.916 204.769,321.749 205.5,319.5C 204.022,319.238 202.689,319.571 201.5,320.5C 200.472,322.361 198.972,323.695 197,324.5C 196.892,328.177 196.892,331.843 197,335.5C 196.333,336.167 195.667,336.833 195,337.5C 195.409,335.775 195.242,334.108 194.5,332.5C 193.614,333.325 193.281,334.325 193.5,335.5C 192.5,335.5 191.5,335.5 190.5,335.5C 184.452,325.353 181.452,314.353 181.5,302.5C 181.187,299.753 181.52,297.086 182.5,294.5C 183.167,297.5 183.833,300.5 184.5,303.5C 185.149,301.376 185.983,299.376 187,297.5C 187.846,293.916 187.346,290.583 185.5,287.5C 185.762,279.787 186.762,272.454 188.5,265.5C 191.438,260.591 193.938,255.258 196,249.5C 196,256.167 196,262.833 196,269.5C 199.3,264.604 201.633,259.27 203,253.5C 204.224,258.386 204.891,263.386 205,268.5C 208.413,260.515 210.08,252.182 210,243.5C 212.805,239.909 213.805,235.909 213,231.5C 211.616,235.758 209.116,239.258 205.5,242C 197.87,244.599 190.203,247.099 182.5,249.5C 181.702,249.957 181.369,250.624 181.5,251.5C 175.703,256.775 172.87,263.441 173,271.5C 171.882,278.547 172.715,285.213 175.5,291.5C 177.058,297.103 178.392,303.103 179.5,309.5C 179.167,310.167 178.833,310.833 178.5,311.5C 176.528,310.695 175.028,309.361 174,307.5C 174.127,318.553 177.794,328.22 185,336.5C 186.128,338.345 186.628,340.345 186.5,342.5C 185.178,342.67 184.011,342.337 183,341.5C 182.503,344.146 182.336,346.813 182.5,349.5C 178.802,349.448 175.135,349.114 171.5,348.5C 171.595,352.058 170.428,355.058 168,357.5C 165.047,356.049 162.213,354.382 159.5,352.5C 158.091,355.652 156.424,358.652 154.5,361.5C 153.277,362.614 151.944,362.781 150.5,362C 148.167,360.833 145.833,359.667 143.5,358.5C 141.074,360.941 138.407,362.941 135.5,364.5C 132.572,363.409 130.406,361.409 129,358.5C 117.376,338.714 113.043,317.381 116,294.5C 114.748,296.001 113.748,297.668 113,299.5C 111.162,288.336 112.162,277.336 116,266.5C 118.68,256.127 122.346,246.127 127,236.5C 130.998,230.169 136.498,225.669 143.5,223C 142.167,222.667 140.833,222.333 139.5,222C 148.089,216.692 157.423,213.358 167.5,212C 180.444,210.126 193.444,208.793 206.5,208C 202.649,201.435 200.816,194.269 201,186.5C 199.833,188.167 198.667,189.833 197.5,191.5C 196.03,183.71 196.53,176.043 199,168.5C 201.947,163.289 204.28,157.955 206,152.5C 203.447,154.597 201.114,156.93 199,159.5C 200.04,152.396 202.54,145.729 206.5,139.5C 204.939,138.653 203.439,138.986 202,140.5C 201.333,139.5 201.333,138.5 202,137.5C 206.07,131.596 211.237,126.929 217.5,123.5C 214.487,122.27 211.487,121.104 208.5,120C 210.957,118.438 213.624,117.438 216.5,117C 223.189,116.622 229.856,116.622 236.5,117C 241.946,112.104 248.28,109.771 255.5,110C 254.167,111 252.833,112 251.5,113C 256.946,113.101 262.279,113.768 267.5,115C 266.167,115.667 264.833,116.333 263.5,117C 269.467,117.485 274.801,119.485 279.5,123C 279.167,123.333 278.833,123.667 278.5,124C 281.423,126.045 284.257,128.212 287,130.5C 287.667,131.833 287.667,133.167 287,134.5C 285.951,133.483 284.784,133.316 283.5,134C 290.589,138.42 295.423,144.587 298,152.5C 298.651,154.235 298.485,155.902 297.5,157.5C 301.308,163.396 302.308,169.729 300.5,176.5C 299.201,175.91 298.368,174.91 298,173.5C 298.324,177.487 298.991,181.487 300,185.5C 300.499,190.155 300.666,194.821 300.5,199.5C 313.43,200.902 324.263,196.902 333,187.5C 337.213,176.65 337.546,165.65 334,154.5C 330.742,147.133 328.575,139.466 327.5,131.5C 330.263,131.744 332.429,133.077 334,135.5C 333.879,124.469 330.213,114.802 323,106.5C 321.872,104.655 321.372,102.655 321.5,100.5C 322.5,100.5 323.5,100.5 324.5,100.5C 324.783,101.289 325.283,101.956 326,102.5C 325.71,99.5865 325.543,96.5865 325.5,93.5C 329.167,94.1667 332.833,94.8333 336.5,95.5C 337.637,85.9204 341.471,84.9204 348,92.5C 349.897,89.8726 351.397,87.0393 352.5,84C 357.191,83.5063 361.191,85.0063 364.5,88.5C 366.307,85.7809 368.64,83.7809 371.5,82.5 Z M 181.5,251.5 C 179.588,264.885 177.588,278.218 175.5,291.5C 172.715,285.213 171.882,278.547 173,271.5C 172.87,263.441 175.703,256.775 181.5,251.5 Z"/></g>
<g><path style="opacity:1" fill="#a2c0b8" d="M 355.5,190.5 C 358.684,190.332 359.184,191.666 357,194.5C 355.611,196.227 353.944,197.561 352,198.5C 351.5,198.167 351,197.833 350.5,197.5C 353.349,195.988 355.016,193.655 355.5,190.5 Z"/></g>
<g><path style="opacity:1" fill="#9ebfbb" d="M 293.5,177.5 C 295.117,178.589 295.95,180.256 296,182.5C 296.821,185.554 296.655,188.554 295.5,191.5C 294.57,186.863 293.903,182.196 293.5,177.5 Z"/></g>
<g><path style="opacity:1" fill="#9dc3bc" d="M 373.5,172.5 C 374.376,172.369 375.043,172.702 375.5,173.5C 374.184,177.429 373.184,181.429 372.5,185.5C 371.5,185.5 370.5,185.5 369.5,185.5C 370.435,181.031 371.768,176.697 373.5,172.5 Z"/></g>
<g><path style="opacity:1" fill="#8dc1bd" d="M 384.5,165.5 C 385.693,165.97 386.36,166.97 386.5,168.5C 386.452,171.329 385.452,173.663 383.5,175.5C 383.167,174.667 382.833,173.833 382.5,173C 383.071,170.456 383.738,167.956 384.5,165.5 Z"/></g>
<g><path style="opacity:1" fill="#7ac0c0" d="M 239.5,211.5 C 236.602,208.372 233.268,205.706 229.5,203.5C 228.749,204.376 228.249,205.376 228,206.5C 224.568,202.636 221.901,198.302 220,193.5C 219.333,194.833 218.667,196.167 218,197.5C 217.595,189.83 217.762,182.163 218.5,174.5C 218.333,171.5 218.167,168.5 218,165.5C 216.982,166.706 216.482,166.373 216.5,164.5C 217.046,162.865 217.38,161.199 217.5,159.5C 220.615,150.536 226.781,145.536 236,144.5C 240.827,145.26 245.66,145.426 250.5,145C 254.797,142.018 259.463,139.851 264.5,138.5C 274.9,141.061 282.067,147.394 286,157.5C 286.837,159.821 287.17,162.155 287,164.5C 286,163.167 285,161.833 284,160.5C 284.996,165.816 286.329,171.149 288,176.5C 287.759,183.652 286.093,191.319 283,199.5C 281.752,202.579 279.919,205.246 277.5,207.5C 276.833,206.5 276.167,205.5 275.5,204.5C 270.148,209.018 264.648,213.351 259,217.5C 254.714,213.938 249.88,211.271 244.5,209.5C 243.758,211.108 243.591,212.775 244,214.5C 242.385,213.614 240.885,212.614 239.5,211.5 Z"/></g>
<g><path style="opacity:1" fill="#255b72" d="M 244.5,184.5 C 242.451,190.276 244.451,193.11 250.5,193C 251.823,192.184 252.489,191.017 252.5,189.5C 254.993,188.226 257.659,187.56 260.5,187.5C 262.225,192.677 265.225,193.677 269.5,190.5C 270.461,188.735 270.795,186.735 270.5,184.5C 271.5,184.5 272.5,184.5 273.5,184.5C 272.288,195.039 266.288,200.372 255.5,200.5C 244.26,200.686 238.427,195.353 238,184.5C 240.293,181.866 242.46,181.866 244.5,184.5 Z"/></g>
<g><path style="opacity:1" fill="#eaf8f9" d="M 244.5,184.5 C 247.203,186.181 249.869,187.847 252.5,189.5C 252.489,191.017 251.823,192.184 250.5,193C 244.451,193.11 242.451,190.276 244.5,184.5 Z"/></g>
<g><path style="opacity:1" fill="#edf6f9" d="M 269.5,190.5 C 265.225,193.677 262.225,192.677 260.5,187.5C 263.298,186.9 265.965,185.9 268.5,184.5C 269.466,186.396 269.799,188.396 269.5,190.5 Z"/></g>
<g><path style="opacity:1" fill="#4b8b93" d="M 256.5,168.5 C 262.038,168.933 265.705,171.767 267.5,177C 267.241,178.261 266.574,179.261 265.5,180C 261.015,180.068 256.848,181.235 253,183.5C 247.791,181.186 247.125,177.853 251,173.5C 252.73,171.598 254.563,169.931 256.5,168.5 Z"/></g>
<g><path style="opacity:1" fill="#245d72" d="M 235.5,164.5 C 240.406,163.306 243.406,165.139 244.5,170C 242.516,175.747 239.016,176.913 234,173.5C 233.068,170.177 233.568,167.177 235.5,164.5 Z"/></g>
<g><path style="opacity:1" fill="#235f72" d="M 270.5,159.5 C 276.303,159.81 278.47,162.81 277,168.5C 273.255,172.566 269.922,172.233 267,167.5C 266.279,163.946 267.446,161.28 270.5,159.5 Z"/></g>
<g><path style="opacity:1" fill="#d2f0fa" d="M 235.5,167.5 C 237.465,167.948 237.798,168.948 236.5,170.5C 235.614,169.675 235.281,168.675 235.5,167.5 Z"/></g>
<g><path style="opacity:1" fill="#d4eff8" d="M 268.5,163.5 C 269.675,163.281 270.675,163.614 271.5,164.5C 269.948,165.798 268.948,165.465 268.5,163.5 Z"/></g>
<g><path style="opacity:1" fill="#dff3eb" d="M 269.5,150.5 C 274.931,149.094 277.265,151.094 276.5,156.5C 273.482,156.335 270.482,156.502 267.5,157C 263.336,160.834 261.503,160 262,154.5C 264.514,152.996 267.014,151.662 269.5,150.5 Z"/></g>
<g><path style="opacity:1" fill="#dff3ec" d="M 229.5,154.5 C 234.267,154.191 238.934,154.691 243.5,156C 245.192,157.401 245.859,159.234 245.5,161.5C 239.79,161.529 234.123,161.029 228.5,160C 227.243,157.924 227.576,156.09 229.5,154.5 Z"/></g>
<g><path style="opacity:1" fill="#9fc4be" d="M 265.5,127.5 C 270.629,126.285 274.629,128.119 277.5,133C 273.767,130.973 269.767,129.14 265.5,127.5 Z"/></g>
<g><path style="opacity:1" fill="#9fc5ba" d="M 251.5,126.5 C 251.897,125.475 252.563,125.308 253.5,126C 255.351,127.684 257.018,129.517 258.5,131.5C 257.998,132.521 257.332,132.688 256.5,132C 254.598,130.27 252.931,128.437 251.5,126.5 Z"/></g>
<g><path style="opacity:1" fill="#9cc2ba" d="M 340.5,112.5 C 342.624,113.031 344.124,114.365 345,116.5C 345.695,118.722 346.528,120.889 347.5,123C 347.167,123.5 346.833,124 346.5,124.5C 344.527,120.554 342.527,116.554 340.5,112.5 Z"/></g>
<g><path style="opacity:1" fill="#99beb7" d="M 380.5,114.5 C 381.765,115.514 382.431,117.014 382.5,119C 382.167,120.5 381.833,122 381.5,123.5C 380.516,120.572 380.183,117.572 380.5,114.5 Z"/></g>
<g><path style="opacity:1" fill="#95c0b9" d="M 364.5,100.5 C 368.328,103.994 369.328,108.327 367.5,113.5C 365.544,109.452 364.544,105.118 364.5,100.5 Z"/></g>
<g><path style="opacity:1" fill="#48989d" d="M 250.5,203.5 C 255.539,204.335 260.539,204.668 265.5,204.5C 261.265,207.84 256.598,208.34 251.5,206C 250.748,205.329 250.414,204.496 250.5,203.5 Z"/></g>
<g><path style="opacity:1" fill="#99c1ba" d="M 373.5,203.5 C 374.272,205.53 373.606,207.363 371.5,209C 369.63,210.366 367.63,211.533 365.5,212.5C 364.692,212.192 364.025,211.692 363.5,211C 367.08,208.723 370.414,206.223 373.5,203.5 Z"/></g>
<g><path style="opacity:1" fill="#e3f1e8" d="M 217.5,159.5 C 217.38,161.199 217.046,162.865 216.5,164.5C 216.482,166.373 216.982,166.706 218,165.5C 218.167,168.5 218.333,171.5 218.5,174.5C 217.762,182.163 217.595,189.83 218,197.5C 218.667,196.167 219.333,194.833 220,193.5C 221.901,198.302 224.568,202.636 228,206.5C 228.249,205.376 228.749,204.376 229.5,203.5C 233.268,205.706 236.602,208.372 239.5,211.5C 237.328,210.199 234.995,209.199 232.5,208.5C 232.576,210.923 231.576,212.756 229.5,214C 230.101,216.637 231.767,217.804 234.5,217.5C 234.167,214.5 235.5,213.167 238.5,213.5C 238.384,216.91 240.05,218.244 243.5,217.5C 243.261,219.467 243.594,221.301 244.5,223C 240.585,224.064 238.418,222.564 238,218.5C 235.929,219.103 234.762,220.436 234.5,222.5C 231.167,219.167 227.833,215.833 224.5,212.5C 224.179,210.952 223.179,210.285 221.5,210.5C 221.157,206.513 220.824,202.513 220.5,198.5C 219.702,200.078 219.202,201.744 219,203.5C 217.927,202.72 216.76,202.887 215.5,204C 217.913,208.307 219.58,212.807 220.5,217.5C 217.215,217.319 214.215,216.319 211.5,214.5C 210.328,214.919 209.328,215.585 208.5,216.5C 208.167,215.833 207.833,215.167 207.5,214.5C 209.076,208.882 210.41,203.215 211.5,197.5C 211.333,195.833 211.167,194.167 211,192.5C 210.617,193.056 210.117,193.389 209.5,193.5C 209.632,190.111 209.799,186.777 210,183.5C 206.837,187.45 206.67,191.45 209.5,195.5C 209.785,197.288 209.452,198.955 208.5,200.5C 207.808,199.975 207.308,199.308 207,198.5C 206.333,193.5 206.333,188.5 207,183.5C 207.837,181.993 209.004,181.493 210.5,182C 212.682,188.605 214.015,195.438 214.5,202.5C 215.086,202.291 215.586,201.957 216,201.5C 215.851,189.183 215.518,176.85 215,164.5C 214.667,164.167 214.333,163.833 214,163.5C 211.351,167.736 209.851,167.236 209.5,162C 210.357,157.779 212.357,154.279 215.5,151.5C 215.833,151.667 216.167,151.833 216.5,152C 215.833,154 215.167,156 214.5,158C 215.244,159.039 216.244,159.539 217.5,159.5 Z"/></g>
<g><path style="opacity:1" fill="#a2c2b8" d="M 212.5,207.5 C 213.496,207.414 214.329,207.748 215,208.5C 216.377,210.754 217.877,212.92 219.5,215C 215.737,214.065 213.404,211.565 212.5,207.5 Z"/></g>
<g><path style="opacity:1" fill="#a8c6c0" d="M 209.5,193.5 C 209.5,194.167 209.5,194.833 209.5,195.5C 206.67,191.45 206.837,187.45 210,183.5C 209.799,186.777 209.632,190.111 209.5,193.5 Z"/></g>
<g><path style="opacity:1" fill="#97c1bd" d="M 224.5,212.5 C 227.833,215.833 231.167,219.167 234.5,222.5C 233.279,223.465 231.946,223.298 230.5,222C 227.335,219.49 225.335,216.324 224.5,212.5 Z"/></g>
<g><path style="opacity:1" fill="#93c4b8" d="M 283.5,210.5 C 285.644,214.367 284.81,218.033 281,221.5C 281.345,217.783 282.178,214.116 283.5,210.5 Z"/></g>
<g><path style="opacity:1" fill="#a2bbbf" d="M 465.5,211.5 C 472.329,210.828 475.163,213.828 474,220.5C 468.307,226.217 464.141,225.217 461.5,217.5C 461.866,214.744 463.2,212.744 465.5,211.5 Z"/></g>
<g><path style="opacity:1" fill="#a3bbbe" d="M 68.5,214.5 C 77.5631,214.645 80.7298,218.978 78,227.5C 74.2637,231.861 70.0971,232.361 65.5,229C 61.0488,223.09 62.0488,218.257 68.5,214.5 Z"/></g>
<g><path style="opacity:1" fill="#9ac5c2" d="M 175.5,219.5 C 178.167,219.5 180.833,219.5 183.5,219.5C 183.5,220.5 183.5,221.5 183.5,222.5C 178.067,222.158 172.9,223.158 168,225.5C 166.174,224.99 166.007,224.156 167.5,223C 170.309,221.907 172.976,220.74 175.5,219.5 Z"/></g>
<g><path style="opacity:1" fill="#97c1b9" d="M 271.5,217.5 C 272.376,217.369 273.043,217.702 273.5,218.5C 268.051,229.164 267.384,228.831 271.5,217.5 Z"/></g>
<g><path style="opacity:1" fill="#99c0b9" d="M 353.5,221.5 C 357.29,221.008 357.956,221.841 355.5,224C 353.5,224.667 351.5,224.667 349.5,224C 350.858,223.066 352.192,222.232 353.5,221.5 Z"/></g>
<g><path style="opacity:1" fill="#a6c5bc" d="M 249.5,220.5 C 251.75,222.244 253.917,224.244 256,226.5C 256.667,227.167 256.667,227.833 256,228.5C 252.481,226.826 250.315,224.159 249.5,220.5 Z"/></g>
<g><path style="opacity:1" fill="#7fc2bf" d="M 337.5,236.5 C 332.968,236.182 328.634,236.515 324.5,237.5C 320.153,230.495 315.986,223.162 312,215.5C 309.861,212.061 307.361,208.894 304.5,206C 308.792,206.128 313.126,206.461 317.5,207C 313.788,209.391 314.455,210.724 319.5,211C 323.241,211.502 326.908,211.502 330.5,211C 326.858,214.487 322.858,217.487 318.5,220C 321.723,222.541 325.39,224.041 329.5,224.5C 328.504,226.816 326.837,228.483 324.5,229.5C 328.304,231.548 332.304,233.215 336.5,234.5C 337.298,234.957 337.631,235.624 337.5,236.5 Z"/></g>
<g><path style="opacity:1" fill="#97c4c0" d="M 302.5,223.5 C 306.485,228.32 307.985,233.987 307,240.5C 304.721,235.051 303.221,229.384 302.5,223.5 Z"/></g>
<g><path style="opacity:1" fill="#eaf4ef" d="M 381.5,236.5 C 387.33,236.161 389.83,238.827 389,244.5C 385.333,249.833 381.667,249.833 378,244.5C 377.279,240.946 378.446,238.28 381.5,236.5 Z"/></g>
<g><path style="opacity:1" fill="#edf5ef" d="M 35.5,245.5 C 43.6178,245.382 45.6178,248.882 41.5,256C 36.3076,257.872 33.3076,256.205 32.5,251C 32.6132,248.601 33.6132,246.768 35.5,245.5 Z"/></g>
<g><path style="opacity:1" fill="#95c1b8" d="M 139.5,242.5 C 140.376,242.369 141.043,242.702 141.5,243.5C 138.646,248.564 136.479,253.897 135,259.5C 134.163,253.181 135.663,247.514 139.5,242.5 Z"/></g>
<g><path style="opacity:1" fill="#9abeb8" d="M 216.5,247.5 C 217.117,247.611 217.617,247.944 218,248.5C 218.667,253.5 218.667,258.5 218,263.5C 216.661,258.264 216.161,252.93 216.5,247.5 Z"/></g>
<g><path style="opacity:1" fill="#9ebdc9" d="M 363.5,261.5 C 368.34,262.188 368.673,263.855 364.5,266.5C 362.296,265.218 361.962,263.551 363.5,261.5 Z"/></g>
<g><path style="opacity:1" fill="#97c6bb" d="M 303.5,252.5 C 305.959,254.052 307.459,256.385 308,259.5C 308.874,262.379 308.54,265.045 307,267.5C 305.636,262.508 304.469,257.508 303.5,252.5 Z"/></g>
<g><path style="opacity:1" fill="#9ac5bd" d="M 144.5,258.5 C 145.675,258.281 146.675,258.614 147.5,259.5C 146.195,264.464 145.029,269.464 144,274.5C 142.008,269.099 142.175,263.766 144.5,258.5 Z"/></g>
<g><path style="opacity:1" fill="#dbf0e6" d="M 188.5,265.5 C 186.762,272.454 185.762,279.787 185.5,287.5C 187.346,290.583 187.846,293.916 187,297.5C 185.983,299.376 185.149,301.376 184.5,303.5C 183.833,300.5 183.167,297.5 182.5,294.5C 181.52,297.086 181.187,299.753 181.5,302.5C 180.355,298.689 180.188,294.689 181,290.5C 181.308,291.308 181.808,291.975 182.5,292.5C 182.848,280.017 184.348,267.683 187,255.5C 188.316,258.688 188.816,262.022 188.5,265.5 Z"/></g>
<g><path style="opacity:1" fill="#8bc0bb" d="M 242.5,276.5 C 243.5,276.5 244.5,276.5 245.5,276.5C 245.666,281.511 245.499,286.511 245,291.5C 243.956,290.377 243.29,289.044 243,287.5C 242.501,283.848 242.335,280.182 242.5,276.5 Z"/></g>
<g><path style="opacity:1" fill="#e3f4f9" d="M 80.5,290.5 C 84.1612,290.35 85.1612,291.85 83.5,295C 80.1234,295.08 79.1234,293.58 80.5,290.5 Z"/></g>
<g><path style="opacity:1" fill="#dff3f7" d="M 412.5,291.5 C 416.138,290.737 417.638,292.07 417,295.5C 414.507,296.946 412.673,296.279 411.5,293.5C 411.863,292.817 412.196,292.15 412.5,291.5 Z"/></g>
<g><path style="opacity:1" fill="#a2bbc1" d="M 398.5,298.5 C 404.377,298.206 406.877,300.872 406,306.5C 401.296,312.208 397.463,311.541 394.5,304.5C 395.467,302.21 396.8,300.21 398.5,298.5 Z"/></g>
<g><path style="opacity:1" fill="#8ac2ba" d="M 291.5,289.5 C 292.75,289.577 293.583,290.244 294,291.5C 294.499,296.823 294.666,302.156 294.5,307.5C 293.5,307.5 292.5,307.5 291.5,307.5C 291.5,301.5 291.5,295.5 291.5,289.5 Z"/></g>
<g><path style="opacity:1" fill="#a4c4bd" d="M 197.5,298.5 C 198.75,298.577 199.583,299.244 200,300.5C 201.167,304.167 202.333,307.833 203.5,311.5C 203.167,311.833 202.833,312.167 202.5,312.5C 199.639,308.25 197.972,303.583 197.5,298.5 Z"/></g>
<g><path style="opacity:1" fill="#a0c2bf" d="M 160.5,296.5 C 162.045,297.23 162.878,298.563 163,300.5C 163.296,303.706 163.796,306.872 164.5,310C 164.167,310.5 163.833,311 163.5,311.5C 160.98,306.869 159.98,301.869 160.5,296.5 Z"/></g>
<g><path style="opacity:1" fill="#97c6bf" d="M 221.5,306.5 C 223.124,306.36 224.29,307.027 225,308.5C 226.175,313.184 226.341,317.85 225.5,322.5C 224.667,321.5 223.833,320.5 223,319.5C 222.077,315.21 221.577,310.877 221.5,306.5 Z"/></g>
<g><path style="opacity:1" fill="#9cc3bc" d="M 153.5,315.5 C 154.496,315.414 155.329,315.748 156,316.5C 157.328,321.457 157.994,326.457 158,331.5C 154.375,326.789 152.875,321.456 153.5,315.5 Z"/></g>
<g><path style="opacity:1" fill="#99beb7" d="M 167.5,324.5 C 170.328,327.162 171.828,330.495 172,334.5C 169.135,331.772 167.635,328.438 167.5,324.5 Z"/></g>
<g><path style="opacity:1" fill="#a3bbbf" d="M 63.5,326.5 C 72.8413,325.541 75.5079,329.208 71.5,337.5C 65.8762,339.852 62.2095,338.185 60.5,332.5C 60.9837,330.199 61.9837,328.199 63.5,326.5 Z"/></g>
<g><path style="opacity:0.904" fill="#a1c0cd" d="M 443.5,332.5 C 444.833,332.5 446.167,332.5 447.5,332.5C 447.5,333.833 447.5,335.167 447.5,336.5C 446.167,336.5 444.833,336.5 443.5,336.5C 443.5,335.167 443.5,333.833 443.5,332.5 Z"/></g>
<g><path style="opacity:0.298" fill="#e0f8fb" d="M 394.5,358.5 C 398.138,359.937 398.305,361.604 395,363.5C 391.928,362.119 391.761,360.452 394.5,358.5 Z"/></g>
<g><path style="opacity:1" fill="#96beba" d="M 320.5,360.5 C 322.776,360.756 323.943,362.09 324,364.5C 324.667,367.167 324.667,369.833 324,372.5C 321.944,368.732 320.778,364.732 320.5,360.5 Z"/></g>
<g><path style="opacity:1" fill="#e8f4f1" d="M 446.5,356.5 C 454.162,356.027 456.496,359.193 453.5,366C 448.322,368.578 444.989,367.078 443.5,361.5C 444.26,359.64 445.26,357.973 446.5,356.5 Z"/></g>
<g><path style="opacity:1" fill="#7ec2c1" d="M 188.5,265.5 C 188.816,262.022 188.316,258.688 187,255.5C 184.348,267.683 182.848,280.017 182.5,292.5C 181.808,291.975 181.308,291.308 181,290.5C 180.188,294.689 180.355,298.689 181.5,302.5C 181.452,314.353 184.452,325.353 190.5,335.5C 192.829,342.137 195.162,348.804 197.5,355.5C 196.833,355.833 196.167,356.167 195.5,356.5C 192.054,355.638 188.72,354.805 185.5,354C 190.076,360.804 191.909,368.304 191,376.5C 188.523,381.368 185.523,381.701 182,377.5C 181.261,373.615 179.927,369.948 178,366.5C 178.535,372.781 178.535,379.115 178,385.5C 177.243,387.315 176.41,388.981 175.5,390.5C 172.843,390.838 170.51,390.171 168.5,388.5C 167.153,383.531 165.986,378.531 165,373.5C 164.94,379.677 163.273,385.343 160,390.5C 156.412,392.979 153.412,392.312 151,388.5C 150.303,384.465 150.47,380.465 151.5,376.5C 151.101,374.803 150.601,373.137 150,371.5C 149.226,375.049 147.893,378.382 146,381.5C 142.329,384.396 139.329,383.729 137,379.5C 136.017,374.5 135.517,369.5 135.5,364.5C 138.407,362.941 141.074,360.941 143.5,358.5C 145.833,359.667 148.167,360.833 150.5,362C 151.944,362.781 153.277,362.614 154.5,361.5C 156.424,358.652 158.091,355.652 159.5,352.5C 162.213,354.382 165.047,356.049 168,357.5C 170.428,355.058 171.595,352.058 171.5,348.5C 175.135,349.114 178.802,349.448 182.5,349.5C 182.336,346.813 182.503,344.146 183,341.5C 184.011,342.337 185.178,342.67 186.5,342.5C 186.628,340.345 186.128,338.345 185,336.5C 177.794,328.22 174.127,318.553 174,307.5C 175.028,309.361 176.528,310.695 178.5,311.5C 178.833,310.833 179.167,310.167 179.5,309.5C 178.392,303.103 177.058,297.103 175.5,291.5C 177.588,278.218 179.588,264.885 181.5,251.5C 181.369,250.624 181.702,249.957 182.5,249.5C 190.203,247.099 197.87,244.599 205.5,242C 209.116,239.258 211.616,235.758 213,231.5C 213.805,235.909 212.805,239.909 210,243.5C 210.08,252.182 208.413,260.515 205,268.5C 204.891,263.386 204.224,258.386 203,253.5C 201.633,259.27 199.3,264.604 196,269.5C 196,262.833 196,256.167 196,249.5C 193.938,255.258 191.438,260.591 188.5,265.5 Z"/></g>
<g><path style="opacity:0.765" fill="#c7e6f3" d="M 110.5,368.5 C 113.956,369.536 114.29,371.203 111.5,373.5C 109.296,372.218 108.962,370.551 110.5,368.5 Z"/></g>
<g><path style="opacity:1" fill="#93c3bc" d="M 304.5,366.5 C 306.776,366.756 307.943,368.09 308,370.5C 308.818,373.227 308.652,375.894 307.5,378.5C 305.767,374.746 304.767,370.746 304.5,366.5 Z"/></g>
<g><path style="opacity:0.459" fill="#e1f8fd" d="M 463.5,372.5 C 464.5,372.5 465.5,372.5 466.5,372.5C 466.5,373.833 466.5,375.167 466.5,376.5C 463.046,376.733 462.046,375.4 463.5,372.5 Z"/></g>
<g><path style="opacity:0.865" fill="#aacad5" d="M 406.5,372.5 C 410.206,374.032 410.373,376.032 407,378.5C 405.2,376.635 405.034,374.635 406.5,372.5 Z"/></g>
<g><path style="opacity:1" fill="#e4f3ea" d="M 201.5,335.5 C 199.894,334.22 198.894,334.72 198.5,337C 200.584,341.185 202.251,345.519 203.5,350C 203.167,350.5 202.833,351 202.5,351.5C 201.502,348.836 200.002,346.503 198,344.5C 197.506,342.866 197.34,341.199 197.5,339.5C 196.5,339.5 195.5,339.5 194.5,339.5C 196.071,344.047 197.737,348.547 199.5,353C 199.5,354.333 199.5,355.667 199.5,357C 197.222,357.986 194.889,358.82 192.5,359.5C 192.167,360.667 191.833,361.833 191.5,363C 192.138,368.152 192.638,373.319 193,378.5C 194.011,379.337 195.178,379.67 196.5,379.5C 197.539,376.136 198.539,372.136 199.5,367.5C 201.099,367.232 202.432,367.566 203.5,368.5C 204.131,378.874 205.464,389.208 207.5,399.5C 206.5,399.5 205.5,399.5 204.5,399.5C 203.942,394.484 203.275,389.484 202.5,384.5C 201.5,384.5 200.5,384.5 199.5,384.5C 199.942,389.691 199.442,394.691 198,399.5C 197.501,394.177 197.334,388.844 197.5,383.5C 196.5,383.5 195.5,383.5 194.5,383.5C 194.167,388.833 193.833,394.167 193.5,399.5C 192.5,399.5 191.5,399.5 190.5,399.5C 190.5,398.5 190.5,397.5 190.5,396.5C 189.883,396.389 189.383,396.056 189,395.5C 188.667,392.833 188.333,390.167 188,387.5C 187.333,386.833 186.667,386.167 186,385.5C 185.107,386.711 184.274,386.711 183.5,385.5C 183.709,384.914 184.043,384.414 184.5,384C 183.36,382.027 182.027,380.193 180.5,378.5C 179.341,382.122 179.175,385.789 180,389.5C 180.741,388.359 181.575,388.359 182.5,389.5C 183.133,392.495 184.133,395.328 185.5,398C 184.584,398.374 183.75,398.874 183,399.5C 181.587,396.339 179.92,393.339 178,390.5C 177.009,391.43 176.509,392.596 176.5,394C 178.376,398.057 180.043,402.223 181.5,406.5C 181.957,407.298 182.624,407.631 183.5,407.5C 182.826,410.526 181.993,413.526 181,416.5C 178.439,412.035 176.605,407.368 175.5,402.5C 175.5,398.5 175.5,394.5 175.5,390.5C 176.41,388.981 177.243,387.315 178,385.5C 178.535,379.115 178.535,372.781 178,366.5C 179.927,369.948 181.261,373.615 182,377.5C 185.523,381.701 188.523,381.368 191,376.5C 191.909,368.304 190.076,360.804 185.5,354C 188.72,354.805 192.054,355.638 195.5,356.5C 196.167,356.167 196.833,355.833 197.5,355.5C 195.162,348.804 192.829,342.137 190.5,335.5C 191.5,335.5 192.5,335.5 193.5,335.5C 193.281,334.325 193.614,333.325 194.5,332.5C 195.242,334.108 195.409,335.775 195,337.5C 195.667,336.833 196.333,336.167 197,335.5C 196.892,331.843 196.892,328.177 197,324.5C 198.972,323.695 200.472,322.361 201.5,320.5C 202.689,319.571 204.022,319.238 205.5,319.5C 204.769,321.749 203.769,323.916 202.5,326C 204.023,329.445 205.356,332.945 206.5,336.5C 207.253,340.42 205.92,341.753 202.5,340.5C 201.548,338.955 201.215,337.288 201.5,335.5 Z"/></g>
<g><path style="opacity:1" fill="#8ec0b8" d="M 203.5,368.5 C 203.073,373.523 202.407,378.523 201.5,383.5C 200.34,379.541 200.173,375.541 201,371.5C 201.236,369.881 202.069,368.881 203.5,368.5 Z"/></g>
<g><path style="opacity:1" fill="#98c1ba" d="M 201.5,335.5 C 200.505,332.536 200.005,329.536 200,326.5C 203.033,330.178 204.533,334.178 204.5,338.5C 203.712,337.23 202.712,336.23 201.5,335.5 Z"/></g>
<g><path style="opacity:1" fill="#94c2bb" d="M 316.5,376.5 C 318.614,377.36 319.78,379.027 320,381.5C 320.667,384.5 320.667,387.5 320,390.5C 317.902,386.109 316.736,381.442 316.5,376.5 Z"/></g>
<g><path style="opacity:1" fill="#92c5ba" d="M 190.5,396.5 C 188.937,392.008 189.27,387.674 191.5,383.5C 191.833,385.667 192.167,387.833 192.5,390C 192.467,392.61 191.8,394.777 190.5,396.5 Z"/></g>
<g><path style="opacity:1" fill="#8fc0bc" d="M 279.5,381.5 C 280.5,381.5 281.5,381.5 282.5,381.5C 282.641,386.867 282.808,392.201 283,397.5C 279.941,392.645 278.774,387.311 279.5,381.5 Z"/></g>
<g><path style="opacity:1" fill="#94c1bf" d="M 227.5,381.5 C 228.675,381.281 229.675,381.614 230.5,382.5C 232.049,388.015 231.549,393.349 229,398.5C 228.688,392.801 228.188,387.134 227.5,381.5 Z"/></g>
<g><path style="opacity:1" fill="#ebf6f3" d="M 97.5,387.5 C 104.934,387.2 106.934,390.366 103.5,397C 98.9206,398.577 95.9206,397.077 94.5,392.5C 95.2599,390.64 96.2599,388.973 97.5,387.5 Z"/></g>
<g><path style="opacity:1" fill="#7ac1c1" d="M 336.5,392.5 C 339.991,394.139 343.657,395.639 347.5,397C 349.317,398.8 350.484,400.966 351,403.5C 354.834,405.247 357.834,407.914 360,411.5C 358.994,417.503 358.327,423.503 358,429.5C 355.592,432.62 352.426,433.953 348.5,433.5C 345.812,442.75 340.145,444.916 331.5,440C 328.833,437.667 326.167,435.333 323.5,433C 309.805,432.119 296.139,431.119 282.5,430C 277.36,428.86 274.193,425.694 273,420.5C 272.172,416.534 271.672,412.534 271.5,408.5C 272.641,404.623 273.808,400.623 275,396.5C 275.801,404.235 278.634,411.068 283.5,417C 284.5,417.667 285.5,417.667 286.5,417C 288.393,414.697 290.393,412.53 292.5,410.5C 294.327,413.842 296.827,416.508 300,418.5C 302.685,416.825 304.685,414.492 306,411.5C 307.051,413.627 308.551,415.293 310.5,416.5C 311.554,416.32 312.554,415.987 313.5,415.5C 314.216,413.518 315.383,411.851 317,410.5C 319.003,412.922 321.503,413.755 324.5,413C 326.39,408.664 327.89,404.164 329,399.5C 330.233,402.297 331.733,404.963 333.5,407.5C 334.915,402.466 335.915,397.466 336.5,392.5 Z"/></g>
<g><path style="opacity:1" fill="#7ac1c1" d="M 242.5,405.5 C 242.817,411.909 242.317,418.243 241,424.5C 238.11,428.367 234.277,430.867 229.5,432C 218.267,433.278 207.267,435.612 196.5,439C 193.221,442.279 189.887,445.613 186.5,449C 178.564,453.635 172.73,451.802 169,443.5C 165.571,445.013 162.571,444.347 160,441.5C 158.873,438.623 158.206,435.623 158,432.5C 154.362,428.655 154.029,424.655 157,420.5C 161.307,417.538 163.974,413.538 165,408.5C 167.99,405.589 171.49,403.589 175.5,402.5C 176.605,407.368 178.439,412.035 181,416.5C 181.993,413.526 182.826,410.526 183.5,407.5C 185.81,412.106 188.644,416.439 192,420.5C 194.281,419.224 196.281,417.557 198,415.5C 202.01,423.003 205.51,423.003 208.5,415.5C 210.455,417.761 212.622,419.761 215,421.5C 217.485,418.558 219.985,415.558 222.5,412.5C 224.784,415.657 227.784,417.157 231.5,417C 235.759,410.53 237.593,403.363 237,395.5C 238.562,397.957 239.562,400.624 240,403.5C 240.708,404.381 241.542,405.047 242.5,405.5 Z"/></g>
</svg>
